<svg xmlns="http://www.w3.org/2000/svg" viewBox="0 0 464.46 99.39"><defs><style>.cls-1{fill:#fff;}.cls-2{fill:#3cae49;}.cls-3{fill:#f0aa22;}.cls-4{fill:#f0e508;}.cls-5{fill:#67c4a8;}.cls-6{fill:#a2cd3a;}.cls-7{fill:#52358f;}.cls-8{fill:#485aa6;}.cls-9{fill:#4dbec3;}.cls-10{fill:#2b66b1;}.cls-11{fill:#4266b0;}.cls-12{fill:#f04b26;}.cls-13{fill:#e7352f;}.cls-14{fill:#c3d833;}.cls-15{fill:#f2bb1a;}.cls-16{fill:#ec7133;}.cls-17{fill:#46baeb;}.cls-18{fill:#2d90cf;}.cls-19{fill:#24a9e1;}.cls-20{fill:#36a97f;}.cls-21{fill:#2e56a3;}.cls-22{fill:#3bb059;}.cls-23{fill:#6bbe4a;}.cls-24{fill:#3487b8;}.cls-25{fill:#8a2c8a;}.cls-26{fill:#d41774;}.cls-27{fill:#e11c86;}.cls-28{fill:#e31e7b;}.cls-29{fill:#ed3f36;}.cls-30{fill:#e82457;}.cls-31{fill:#e31b8a;}.cls-32{fill:#cd167f;}.cls-33{fill:#ab3a95;}.cls-34{fill:#fac81a;}.cls-35{fill:#f4eb23;}.cls-36{fill:#e4292f;}</style></defs><g id="Layer_2" data-name="Layer 2"><g id="Layer_1-2" data-name="Layer 1"><path class="cls-1" d="M448.38,76.61V54.67q0-7.14-4.16-11.45a14.42,14.42,0,0,0-10.86-4.32,14.15,14.15,0,0,0-4.3.66A13.73,13.73,0,0,0,425.72,41a15.69,15.69,0,0,0-2.39,1.9,13.75,13.75,0,0,0-1.42,1.5c-.2.27-.35.49-.45.64V39.69h-5.37V76.61h5.37V56.21a12.24,12.24,0,0,1,3.3-8.82A10.9,10.9,0,0,1,433,43.93a9.46,9.46,0,0,1,7.19,3,10.86,10.86,0,0,1,2.8,7.79V76.61h5.4m-60.74-4.25a12.68,12.68,0,0,1-9.51-4.15,14.07,14.07,0,0,1-4-10.08,14,14,0,0,1,4-10.09,13,13,0,0,1,19,0,14,14,0,0,1,4,10.11,14,14,0,0,1-4,10.1A12.73,12.73,0,0,1,387.64,72.36Zm0,5A18.06,18.06,0,0,0,401,71.8a18.72,18.72,0,0,0,5.48-13.65A18.75,18.75,0,0,0,401,44.48a18.75,18.75,0,0,0-26.69,0,18.73,18.73,0,0,0-5.5,13.67,18.7,18.7,0,0,0,5.5,13.65A18.11,18.11,0,0,0,387.65,77.36Zm-28.46-.75V39.69h-5.37V76.61Zm-2.71-45.79a3.38,3.38,0,1,0-2.46-1A3.34,3.34,0,0,0,356.48,30.82ZM330.76,77.36q6.15,0,9.8-3.18a10.08,10.08,0,0,0,3.64-7.94,8.75,8.75,0,0,0-2.06-6,11.78,11.78,0,0,0-5-3.38c-1.95-.69-3.91-1.3-5.86-1.84a17.63,17.63,0,0,1-5-2.16,4.1,4.1,0,0,1-2.07-3.57,4.77,4.77,0,0,1,1.92-3.75,7.45,7.45,0,0,1,5-1.62A9.86,9.86,0,0,1,335.64,45a10.91,10.91,0,0,1,2.68,1.69,8.44,8.44,0,0,1,.89,1.07l3.86-3.83-.56-.56A13.86,13.86,0,0,0,341,42.15a20.32,20.32,0,0,0-2.35-1.51,13.91,13.91,0,0,0-3.36-1.23,17.29,17.29,0,0,0-4.19-.51A12.79,12.79,0,0,0,322.32,42a9.45,9.45,0,0,0-3.51,7.28,8.13,8.13,0,0,0,2.09,5.77,12.28,12.28,0,0,0,5,3.26q2.93,1,5.84,1.88a17.09,17.09,0,0,1,5,2.29,4.38,4.38,0,0,1,2.08,3.74,5.44,5.44,0,0,1-2.08,4.39,9.12,9.12,0,0,1-6,1.73,10.51,10.51,0,0,1-3.35-.56,11,11,0,0,1-2.7-1.3,14.72,14.72,0,0,1-2-1.65,13.63,13.63,0,0,1-1.19-1.28c-.17-.23-.31-.43-.41-.58l-3.87,3.83.49.72a12.52,12.52,0,0,0,1.64,1.63,20.08,20.08,0,0,0,2.61,1.9,15.52,15.52,0,0,0,3.81,1.61A17.5,17.5,0,0,0,330.76,77.36Zm-31.14-.75V56.21a11.5,11.5,0,0,1,3.38-8.6,11.24,11.24,0,0,1,8.15-3.3h2.33V38.9h-1.54a16.2,16.2,0,0,0-4.56.62,14.65,14.65,0,0,0-3.46,1.39,16.08,16.08,0,0,0-2.42,1.76,13.88,13.88,0,0,0-1.43,1.39c-.2.27-.35.47-.45.62v-5h-5.37V76.61Zm-35.38.75a15.45,15.45,0,0,0,4.3-.6,14.26,14.26,0,0,0,3.36-1.38,15.34,15.34,0,0,0,2.39-1.76,13,13,0,0,0,1.41-1.39c.2-.26.35-.47.45-.62v5h5.41V39.69h-5.41V60.08a12.45,12.45,0,0,1-3.23,8.83A10.44,10.44,0,0,1,265,72.36a9.79,9.79,0,0,1-7.36-3.15,11.15,11.15,0,0,1-3-8V39.69h-5.37V61.21q0,7.17,4.26,11.66A14.18,14.18,0,0,0,264.24,77.36Zm-38.83,0a17.24,17.24,0,0,0,5.31-.85A21,21,0,0,0,235,74.67a23,23,0,0,0,3.15-2.29,21.69,21.69,0,0,0,2-1.84c.32-.36.55-.64.7-.85L237,66.24l-1.24,1.5a14.53,14.53,0,0,1-4.21,3.08,12.81,12.81,0,0,1-6.12,1.54,12.23,12.23,0,0,1-9.18-4.11,14.12,14.12,0,0,1-3.89-10.1A14.12,14.12,0,0,1,216.23,48a12.23,12.23,0,0,1,9.18-4.11,12.54,12.54,0,0,1,4,.64A13.13,13.13,0,0,1,232.54,46a13.42,13.42,0,0,1,2.24,1.9c.69.73,1.13,1.23,1.33,1.5l.45.64,3.87-3.83-1.61-1.76a17.54,17.54,0,0,0-5.36-3.7,17.8,17.8,0,0,0-8.05-1.86,17.52,17.52,0,0,0-13,5.61A18.82,18.82,0,0,0,207,58.13a18.82,18.82,0,0,0,5.44,13.61A17.51,17.51,0,0,0,225.41,77.36Zm-30.72-21.9h-25a13.41,13.41,0,0,1,4.25-8.11,11.88,11.88,0,0,1,8.45-3.42,11.58,11.58,0,0,1,8.28,3.27A13.2,13.2,0,0,1,194.69,55.46Zm-11.95,21.9a17.81,17.81,0,0,0,5.43-.85,20.85,20.85,0,0,0,4.32-1.84,20.5,20.5,0,0,0,3.12-2.29,19.59,19.59,0,0,0,1.88-1.84c.28-.36.5-.64.65-.85l-3.45-3.45-1.32,1.5a13.19,13.19,0,0,1-4.2,3.08,13.71,13.71,0,0,1-6.43,1.54,12.52,12.52,0,0,1-9-3.64,12.68,12.68,0,0,1-4.12-8.64l30,.08.38-2.78A18.25,18.25,0,0,0,195,44.14a16.83,16.83,0,0,0-12.62-5.24,17,17,0,0,0-12.68,5.61,19,19,0,0,0-5.39,13.62,18.83,18.83,0,0,0,5.45,13.61A17.49,17.49,0,0,0,182.74,77.36ZM138.92,49.68H123.18V28.16h15.74a10.62,10.62,0,0,1,7.84,2.91,10.53,10.53,0,0,1,2.93,7.85,10.06,10.06,0,0,1-10.77,10.76ZM123.18,76.61V55.09h15.36l11.94,21.52H157L144.32,54.3l1.17-.38a12,12,0,0,0,2.78-1.5,22.9,22.9,0,0,0,3.26-2.74,13.32,13.32,0,0,0,2.78-4.47,16.53,16.53,0,0,0,1.17-6.31,15.46,15.46,0,0,0-4.72-11.53,16.23,16.23,0,0,0-11.84-4.62H117.39V76.61Z"/><path class="cls-1" d="M459.39,71.45h-1.24V69.84h1.24c.64,0,1,.26,1,.8S460,71.45,459.39,71.45Zm-1.24,2.94V72.33h1.24l1.12,2.06h.94l-1.32-2.27.26-.13a1.59,1.59,0,0,0,.77-1.34,1.59,1.59,0,0,0-.51-1.21,1.81,1.81,0,0,0-1.31-.49h-2.07v5.44Zm1,1.69a4.34,4.34,0,1,1,3.14-1.27A4.24,4.24,0,0,1,459.1,76.08Zm0,.88a5.19,5.19,0,0,0,3.8-1.55,5.26,5.26,0,0,0,0-7.48,5.46,5.46,0,0,0-7.6,0,5.29,5.29,0,0,0,0,7.48A5.19,5.19,0,0,0,459.1,77Z"/><polygon class="cls-2" points="21.42 24.84 0 24.84 21.42 37.2 21.42 24.84"/><polygon class="cls-3" points="86.06 24.84 64.56 12.43 64.56 24.84 86.06 24.84"/><polygon class="cls-4" points="43.03 12.43 21.44 12.47 43.03 24.84 43.03 12.43"/><polygon class="cls-5" points="10.83 43.58 21.42 62.15 21.42 37.2 10.83 43.58"/><polygon class="cls-6" points="21.42 24.84 21.42 37.2 43.03 24.84 21.42 24.84"/><polygon class="cls-7" points="43.23 74.55 43.03 74.42 43.03 99.39 53.84 80.65 43.23 74.55"/><polygon class="cls-8" points="42.81 74.55 32.22 80.65 43.03 99.39 43.03 74.42 42.81 74.55"/><polygon class="cls-9" points="10.83 43.58 0 49.67 21.42 62.15 10.83 43.58"/><polygon class="cls-10" points="21.42 62.15 21.5 86.94 32.22 80.65 21.42 62.15"/><polygon class="cls-11" points="43.03 74.42 21.44 62.15 32.22 80.65 43.03 74.42"/><polygon class="cls-12" points="64.56 24.84 64.56 37.13 86.06 24.84 64.56 24.84"/><polygon class="cls-13" points="75.25 43.58 86.06 24.84 64.56 37.16 75.25 43.58"/><polygon class="cls-14" points="43.03 24.84 21.44 12.47 21.44 24.84 43.03 24.84"/><polygon class="cls-15" points="57.37 24.84 64.47 24.84 64.54 24.84 64.54 12.43 43.03 24.84 57.37 24.84"/><polygon class="cls-16" points="64.56 24.84 43.03 24.84 64.56 37.13 64.56 24.84"/><polygon class="cls-17" points="21.42 62.15 0 49.67 10.92 68.37 21.42 62.15"/><polygon class="cls-18" points="10.92 68.37 21.5 86.94 21.42 62.15 10.92 68.37"/><polygon class="cls-19" points="0 49.67 0 74.55 10.92 68.37 0 49.67"/><polygon class="cls-20" points="0 24.84 0 49.67 10.83 43.58 0 24.84"/><polygon class="cls-21" points="21.5 86.94 43.03 99.39 32.22 80.65 21.5 86.94"/><polygon class="cls-22" points="21.42 37.18 0 24.84 10.83 43.58 21.42 37.18"/><polygon class="cls-23" points="21.42 12.47 0 24.84 21.42 24.84 21.42 12.47"/><polygon class="cls-24" points="10.92 68.37 0 74.55 21.5 86.94 10.92 68.37"/><polygon class="cls-25" points="43.03 99.39 64.47 87.03 53.84 80.65 43.03 99.39"/><polygon class="cls-26" points="64.62 62.15 64.47 87.03 75.34 68.24 64.62 62.15"/><polygon class="cls-27" points="64.47 87.03 86.06 74.55 75.34 68.24 64.47 87.03"/><polygon class="cls-28" points="86.06 74.55 86.06 49.8 75.34 68.24 86.06 74.55"/><polygon class="cls-29" points="75.25 43.58 64.56 37.16 64.62 62.15 75.25 43.58"/><polygon class="cls-30" points="64.62 62.15 86.06 49.8 75.25 43.58 64.62 62.15"/><polygon class="cls-31" points="75.34 68.24 86.06 49.8 64.62 62.15 75.34 68.24"/><polygon class="cls-32" points="53.84 80.65 64.47 87.03 64.62 62.15 53.84 80.65"/><polygon class="cls-33" points="43.23 74.55 53.84 80.65 64.62 62.15 43.03 74.42 43.23 74.55"/><polygon class="cls-15" points="64.56 12.43 43.03 0 43.03 12.43 64.56 12.43"/><polygon class="cls-34" points="43.03 24.84 64.56 12.43 43.03 12.43 43.03 24.84"/><polygon class="cls-35" points="43.03 0 21.44 12.47 43.03 12.43 43.03 0"/><polygon class="cls-36" points="86.06 49.8 86.06 24.84 75.25 43.58 86.06 49.8"/><polygon class="cls-15" points="56.27 42.07 43.03 34.42 43.03 49.67 56.27 42.07"/><polygon class="cls-36" points="56.27 57.32 56.27 42.07 43.03 49.67 56.27 57.32"/><polygon class="cls-25" points="43.03 64.93 56.27 57.32 43.03 49.67 43.03 64.93"/><polygon class="cls-6" points="43.03 34.42 29.83 42.07 43.03 49.67 43.03 34.42"/><polygon class="cls-19" points="29.83 42.07 29.83 57.32 43.03 49.67 29.83 42.07"/><polygon class="cls-21" points="43.03 49.67 29.83 57.32 43.03 64.93 43.03 49.67"/></g></g></svg>